<?xml version="1.0" encoding="UTF-8" standalone="no"?>
<!-- Created with Inkscape (http://www.inkscape.org/) -->

<svg
   xmlns:dc="http://purl.org/dc/elements/1.1/"
   xmlns:cc="http://creativecommons.org/ns#"
   xmlns:rdf="http://www.w3.org/1999/02/22-rdf-syntax-ns#"
   xmlns:svg="http://www.w3.org/2000/svg"
   xmlns="http://www.w3.org/2000/svg"
   xmlns:xlink="http://www.w3.org/1999/xlink"
   xmlns:sodipodi="http://sodipodi.sourceforge.net/DTD/sodipodi-0.dtd"
   xmlns:inkscape="http://www.inkscape.org/namespaces/inkscape"
   version="1.2"
   width="128"
   height="128"
   id="transposhlogo"
   inkscape:version="0.48.4 r9939"
   sodipodi:docname="transposhlogoweb.svg">
  <sodipodi:namedview
     pagecolor="#ffffff"
     bordercolor="#666666"
     borderopacity="1"
     objecttolerance="10"
     gridtolerance="10"
     guidetolerance="10"
     inkscape:pageopacity="0"
     inkscape:pageshadow="2"
     inkscape:window-width="1302"
     inkscape:window-height="996"
     id="namedview38"
     showgrid="false"
     inkscape:zoom="1.4273"
     inkscape:cx="246.14"
     inkscape:cy="105.66"
     inkscape:window-x="0"
     inkscape:window-y="0"
     inkscape:window-maximized="0"
     inkscape:current-layer="transposhlogo" />
  <defs
     id="defs4">
    <linearGradient
       id="linearGradient7018">
      <stop
         id="stop7020"
         style="stop-color:#303030;stop-opacity:1"
         offset="0" />
      <stop
         id="stop7022"
         style="stop-color:#303030;stop-opacity:0.188"
         offset="1" />
    </linearGradient>
    <filter
       color-interpolation-filters="sRGB"
       id="filter6848">
      <feGaussianBlur
         id="feGaussianBlur6850"
         stdDeviation="0.41332351" />
    </filter>
    <radialGradient
       cx="362"
       cy="347"
       r="260"
       fx="362"
       fy="347"
       id="radialGradient7026"
       xlink:href="#linearGradient7018"
       gradientUnits="userSpaceOnUse"
       gradientTransform="translate(0,-1.15)" />
    <radialGradient
       inkscape:collect="always"
       xlink:href="#linearGradient7018"
       id="radialGradient3053"
       gradientUnits="userSpaceOnUse"
       gradientTransform="translate(0,-1.15)"
       cx="362"
       cy="347"
       fx="362"
       fy="347"
       r="260" />
    <radialGradient
       inkscape:collect="always"
       xlink:href="#linearGradient7018"
       id="radialGradient3055"
       gradientUnits="userSpaceOnUse"
       gradientTransform="translate(0,-1.15)"
       cx="362"
       cy="347"
       fx="362"
       fy="347"
       r="260" />
    <radialGradient
       inkscape:collect="always"
       xlink:href="#linearGradient7018"
       id="radialGradient3057"
       gradientUnits="userSpaceOnUse"
       gradientTransform="translate(0,-1.15)"
       cx="362"
       cy="347"
       fx="362"
       fy="347"
       r="260" />
    <radialGradient
       inkscape:collect="always"
       xlink:href="#linearGradient7018"
       id="radialGradient3059"
       gradientUnits="userSpaceOnUse"
       gradientTransform="translate(0,-1.15)"
       cx="362"
       cy="347"
       fx="362"
       fy="347"
       r="260" />
    <radialGradient
       inkscape:collect="always"
       xlink:href="#linearGradient7018"
       id="radialGradient3061"
       gradientUnits="userSpaceOnUse"
       gradientTransform="translate(0,-1.15)"
       cx="362"
       cy="347"
       fx="362"
       fy="347"
       r="260" />
    <radialGradient
       inkscape:collect="always"
       xlink:href="#linearGradient7018"
       id="radialGradient3063"
       gradientUnits="userSpaceOnUse"
       gradientTransform="translate(0,-1.15)"
       cx="362"
       cy="347"
       fx="362"
       fy="347"
       r="260" />
    <radialGradient
       inkscape:collect="always"
       xlink:href="#linearGradient7018"
       id="radialGradient3065"
       gradientUnits="userSpaceOnUse"
       gradientTransform="translate(0,-1.15)"
       cx="362"
       cy="347"
       fx="362"
       fy="347"
       r="260" />
  </defs>
  <metadata
     id="metadata7">
    <rdf:RDF>
      <cc:Work
         rdf:about="">
        <dc:format>image/svg+xml</dc:format>
        <dc:type
           rdf:resource="http://purl.org/dc/dcmitype/StillImage" />
        <dc:title></dc:title>
      </cc:Work>
    </rdf:RDF>
  </metadata>
  <g
     style="stroke:url(#radialGradient3065);stroke-opacity:0.827"
     id="logo"
     transform="matrix(0.23257,0,0,0.23257,-19.499,-17.08)"
     inkscape:transform-center-y="-3.5032">
    <path
       inkscape:connector-curvature="0"
       style="fill:#ff0000;fill-opacity:0.753;stroke:url(#radialGradient3053);stroke-width:20;stroke-linecap:round;stroke-linejoin:round;stroke-miterlimit:4;stroke-opacity:0.827;stroke-dashoffset:0"
       id="redh"
       d="m 140,255 c 117,-85 316,-15 465,18 3,-29 5,-39 8,-68 -164,-4 -312,-80 -467,-38 -3,32 -9,55 -6,88 z" />
    <path
       inkscape:connector-curvature="0"
       style="fill:#ffff00;fill-opacity:0.753;stroke:url(#radialGradient3055);stroke-width:20;stroke-linecap:round;stroke-linejoin:round;stroke-miterlimit:4;stroke-opacity:0.827;stroke-dashoffset:0"
       id="yellowh"
       d="m 125,384 c 117,-85 316,-14 465,19 3,-30 5,-39 8,-68 -164,-5 -312,-80 -467,-38 -3,32 -9,55 -6,87 z" />
    <path
       inkscape:connector-curvature="0"
       style="fill:#0000ff;fill-opacity:0.753;stroke:url(#radialGradient3057);stroke-width:20;stroke-linecap:round;stroke-linejoin:round;stroke-miterlimit:4;stroke-opacity:0.827;stroke-dashoffset:0"
       id="blueh"
       d="m 113,514 c 117,-85 316,-14 465,19 3,-30 5,-39 8,-68 -164,-5 -312,-80 -467,-38 -3,32 -9,55 -6,87 z" />
    <path
       inkscape:connector-curvature="0"
       style="fill:#ff0000;fill-opacity:0.753;stroke:url(#radialGradient3059);stroke-width:20;stroke-linecap:round;stroke-linejoin:round;stroke-miterlimit:4;stroke-opacity:0.827;stroke-dashoffset:0"
       id="redv"
       d="M 275,568 C 190,451 260,252 294,103 264,101 255,98.2 226,95.6 221,259 146,407 187,562 c 33,3 56,9 88,6 z" />
    <path
       inkscape:connector-curvature="0"
       style="fill:#00ff00;fill-opacity:0.753;stroke:url(#radialGradient3061);stroke-width:20;stroke-linecap:round;stroke-linejoin:round;stroke-miterlimit:4;stroke-opacity:0.827;stroke-dashoffset:0"
       id="greenv"
       d="m 411,583 c -85,-117 -15,-316 18,-465 -29,-2 -39,-5 -68,-7 -4,163 -80,311 -38,466 32,3 55,9 88,6 z" />
    <path
       inkscape:connector-curvature="0"
       style="fill:#0000ff;fill-opacity:0.753;stroke:url(#radialGradient3063);stroke-width:20;stroke-linecap:round;stroke-linejoin:round;stroke-miterlimit:4;stroke-opacity:0.827;stroke-dashoffset:0"
       id="bluev"
       d="m 544,597 c -85,-117 -15,-316 18,-465 -29,-3 -39,-5 -68,-8 -4,164 -80,312 -38,467 32,3 55,9 88,6 z" />
  </g>
</svg>
